<svg width="221" height="172" viewBox="0 0 221 172" fill="none" xmlns="http://www.w3.org/2000/svg">
<path d="M99.5417 108.145C99.5417 101.997 104.415 97.0137 110.427 97.0137H114.056V110H99.5417V108.145Z" fill="#303030"/>
<path d="M144.5 108.131C144.5 101.983 149.63 97 155.958 97H159.778V109.986H144.5V108.131Z" fill="#303030"/>
<path d="M88.8472 48.125H114.056V91.6667Lnan nanCnan nan nan nan -nan -nanL114.056 91.6667Cnan nan nan nan 89.6937 68.3137V68.3137L88.8472 48.125Z" fill="#C19B62"/>
<path d="M134.681 48.125H159.889V91.6667Lnan nanL159.889 91.6667C146.82 91.6667 136.075 81.3664 135.527 68.3137L134.681 48.125Z" fill="#C19B62"/>
<path d="M83.5 73.3335H140.792V84.0279H83.5V73.3335Z" fill="#D9D9D9"/>
<path d="M83.5 73.3335H140.792V84.0279H83.5V73.3335Z" fill="url(#paint0_linear_139_6690)"/>
<mask id="mask0_139_6690" style="mask-type:alpha" maskUnits="userSpaceOnUse" x="101" y="47" width="59" height="57">
<path d="M101.069 47.3613H141.31L145.388 66.6364L159.889 69.4164V103.889L101.069 85.9114V47.3613Z" fill="#D9D9D9"/>
</mask>
<g mask="url(#mask0_139_6690)">
<path fill-rule="evenodd" clip-rule="evenodd" d="M123.986 38.1948H169.819V92.0061L159.8 91.6L159.569 48.5503H134.675L135.511 68.6991C135.898 78.0313 141.454 85.5567 149.319 89.3C152.432 90.7821 156.139 91.6 159.8 91.6V101.96C141.4 101.96 126.04 87.7054 125.27 69.1328L123.986 38.1948Z" fill="url(#paint1_linear_139_6690)"/>
<path fill-rule="evenodd" clip-rule="evenodd" d="M123.986 38.1948H169.819V92.0061L159.8 91.6L159.569 48.5503H134.675L135.511 68.6991C135.898 78.0313 141.454 85.5567 149.319 89.3C152.432 90.7821 156.139 91.6 159.8 91.6V101.96C141.4 101.96 126.04 87.7054 125.27 69.1328L123.986 38.1948Z" fill="url(#paint2_linear_139_6690)"/>
</g>
<mask id="mask1_139_6690" style="mask-type:alpha" maskUnits="userSpaceOnUse" x="56" y="47" width="59" height="57">
<path d="M56 47.3613H95.7185L99.7429 66.6364L114.056 69.4164V103.889L56 85.9114V47.3613Z" fill="#D9D9D9"/>
</mask>
<g mask="url(#mask1_139_6690)">
<path fill-rule="evenodd" clip-rule="evenodd" d="M102.164 30.4082V45.2288H116.539L117.07 55.023C117.097 55.5222 117.111 56.0239 117.111 56.5278C117.111 71.7157 104.799 84.0278 89.6111 84.0278C74.4233 84.0278 62.1111 71.7157 62.1111 56.5278C62.1111 41.34 74.4233 29.0278 89.6111 29.0278C90.7964 29.0278 91.9692 29.1034 93.1237 29.2512L102.164 30.4082ZM81.4539 41.4442C76.1012 44.345 72.4663 50.0119 72.4663 56.5278C72.4663 65.9966 80.1423 73.6726 89.6111 73.6726C95.6042 73.6726 100.879 70.5976 103.944 65.9393C105.56 63.4838 106.561 60.5885 106.73 57.4716C106.747 57.1592 106.756 56.8445 106.756 56.5278C106.756 56.2112 106.747 55.8965 106.73 55.584H91.8092V39.5227C91.0895 39.4305 90.3558 39.3831 89.6111 39.3831C88.8663 39.3831 88.1327 39.4305 87.413 39.5227C85.2791 39.7958 83.2679 40.4611 81.4539 41.4442Z" fill="url(#paint3_linear_139_6690)"/>
<path fill-rule="evenodd" clip-rule="evenodd" d="M78.1528 37.4307H124.75V91.2419H114.329V47.7861H89.0201L89.87 67.935C90.2636 77.2672 95.9116 85.1896 103.908 88.9329C107.073 90.4149 110.607 91.2419 114.329 91.2419V101.597C95.6217 101.597 80.2413 86.9412 79.4579 68.3687L78.1528 37.4307Z" fill="url(#paint4_linear_139_6690)"/>
</g>
<path fill-rule="evenodd" clip-rule="evenodd" d="M157.597 53.4722H89.6111V34.0054C89.6111 15.2247 104.83 0 123.604 0C142.378 0 157.597 15.2247 157.597 34.0054V53.4722ZM144.845 29.0771C145.211 30.6608 145.404 32.3105 145.404 34.0054V41.2746H101.804V34.0054C101.804 32.3105 101.998 30.6608 102.363 29.0771C104.596 19.4067 113.259 12.1976 123.604 12.1976C133.95 12.1976 142.612 19.4067 144.845 29.0771Z" fill="url(#paint5_linear_139_6690)"/>
<path fill-rule="evenodd" clip-rule="evenodd" d="M80.0472 0C77.7335 0 75.5198 0.938734 73.9165 2.59969L72.946 3.60515L64.2521 4.50941C59.5621 4.99721 56 8.93396 56 13.6294C56 18.0978 59.6379 21.7202 64.1254 21.7202H72.2424L72.637 22.4073V56.3253C72.637 65.6779 80.2512 73.2597 89.6437 73.2597H90.1642C93.0816 83.8695 102.834 91.6667 114.414 91.6667V73.2597H135.639C138.556 83.8695 148.308 91.6667 159.889 91.6667V73.2597V66.6332V44.5448V43.0723H159.812C159.073 36.0384 153.099 30.5556 145.84 30.5556C145.632 30.5556 145.426 30.56 145.22 30.5689C143.624 20.1392 134.577 12.1486 123.657 12.1486C112.723 12.1486 103.668 20.1596 102.088 30.6088C95.9895 31.1377 91.0068 35.5466 89.6437 41.3429V22.8246V20.6158V6.62651H90.7529C94.4282 6.62651 97.4077 3.65972 97.4077 1.45554e-06L89.6437 0H80.0472Z" fill="url(#paint6_linear_139_6690)"/>
<path d="M80.4444 8.02078C80.4444 9.49737 79.2474 10.6944 77.7708 10.6944C76.2942 10.6944 75.0972 9.49737 75.0972 8.02078C75.0972 6.54418 76.2942 5.34717 77.7708 5.34717C79.2474 5.34717 80.4444 6.54418 80.4444 8.02078Z" fill="white"/>
<path d="M3.23389 163V133.684H14.2799C22.0499 133.684 27.1739 138.598 27.1739 148.342C27.1739 158.086 22.0499 163 14.2799 163H3.23389ZM9.61789 157.33H14.2799C18.0599 157.33 20.4119 155.272 20.4119 150.61V146.074C20.4119 141.412 18.0599 139.354 14.2799 139.354H9.61789V157.33Z" fill="url(#paint7_linear_139_6690)"/>
<path d="M38.399 163H32.183V140.95H38.399V145.738H38.609C39.113 143.302 40.793 140.95 44.237 140.95H45.329V146.746H43.775C40.163 146.746 38.399 147.544 38.399 150.106V163Z" fill="url(#paint8_linear_139_6690)"/>
<path d="M57.9044 163.504C51.4364 163.504 47.5724 159.052 47.5724 151.954C47.5724 144.856 51.4364 140.446 57.9044 140.446C64.3724 140.446 68.2364 144.856 68.2364 151.954C68.2364 159.052 64.3724 163.504 57.9044 163.504ZM57.9044 158.59C60.3404 158.59 61.7684 156.994 61.7684 154.222V149.728C61.7684 146.956 60.3404 145.36 57.9044 145.36C55.4684 145.36 54.0404 146.956 54.0404 149.728V154.222C54.0404 156.994 55.4684 158.59 57.9044 158.59Z" fill="url(#paint9_linear_139_6690)"/>
<path d="M78.8815 163H72.6655V140.95H78.8815V144.688H79.1335C79.9315 142.336 81.7795 140.446 85.0555 140.446C88.0795 140.446 90.2635 142 91.2295 144.898H91.3555C92.1535 142.42 94.7155 140.446 98.0755 140.446C102.317 140.446 104.669 143.638 104.669 149.182V163H98.4535V149.686C98.4535 146.83 97.4875 145.486 95.4295 145.486C93.5815 145.486 91.7755 146.536 91.7755 148.72V163H85.5595V149.686C85.5595 146.83 84.5515 145.486 82.5355 145.486C80.7295 145.486 78.8815 146.536 78.8815 148.72V163Z" fill="url(#paint10_linear_139_6690)"/>
<path d="M119.393 163.504C112.631 163.504 108.809 159.01 108.809 151.954C108.809 144.982 112.505 140.446 119.141 140.446C126.449 140.446 129.389 145.738 129.389 151.702V153.55H115.235V153.886C115.235 156.784 116.789 158.632 120.107 158.632C122.711 158.632 124.139 157.414 125.525 155.986L128.633 159.85C126.659 162.118 123.425 163.504 119.393 163.504ZM119.267 145.024C116.789 145.024 115.235 146.83 115.235 149.56V149.896H122.963V149.518C122.963 146.83 121.745 145.024 119.267 145.024Z" fill="url(#paint11_linear_139_6690)"/>
<path d="M147.303 163V159.304H147.093C146.463 161.698 144.027 163.504 141.171 163.504C135.585 163.504 132.687 159.43 132.687 151.954C132.687 144.478 135.585 140.446 141.171 140.446C144.027 140.446 146.463 142.21 147.093 144.646H147.303V131.92H153.519V163H147.303ZM143.229 158.464C145.581 158.464 147.303 157.246 147.303 155.23V148.72C147.303 146.704 145.581 145.486 143.229 145.486C140.877 145.486 139.155 147.292 139.155 150.064V153.886C139.155 156.658 140.877 158.464 143.229 158.464Z" fill="url(#paint12_linear_139_6690)"/>
<path d="M179.071 163H175.627C173.401 163 171.805 161.488 171.427 159.136H171.175C170.503 161.992 168.067 163.504 164.707 163.504C160.297 163.504 157.861 160.9 157.861 157.078C157.861 152.416 161.473 150.19 167.311 150.19H170.797V148.804C170.797 146.662 169.747 145.318 167.143 145.318C164.665 145.318 163.363 146.578 162.397 147.922L158.701 144.646C160.465 142.042 162.985 140.446 167.605 140.446C173.821 140.446 177.013 143.302 177.013 148.51V158.17H179.071V163ZM167.017 159.178C169.075 159.178 170.797 158.338 170.797 156.322V153.718H167.773C165.379 153.718 164.119 154.6 164.119 156.196V156.826C164.119 158.422 165.169 159.178 167.017 159.178Z" fill="url(#paint13_linear_139_6690)"/>
<path d="M189.46 163H183.244V140.95H189.46V145.738H189.67C190.174 143.302 191.854 140.95 195.298 140.95H196.39V146.746H194.836C191.224 146.746 189.46 147.544 189.46 150.106V163Z" fill="url(#paint14_linear_139_6690)"/>
<path d="M210.759 151.24L213.993 140.95H219.789L211.305 166.402C210.171 169.804 208.323 171.4 204.543 171.4H200.679V166.57H204.837L205.593 164.134L197.865 140.95H204.039L207.273 151.24L208.869 157.624H209.121L210.759 151.24Z" fill="url(#paint15_linear_139_6690)"/>
<defs>
<linearGradient id="paint0_linear_139_6690" x1="112.42" y1="75.0594" x2="122.326" y2="88.0279" gradientUnits="userSpaceOnUse">
<stop stop-color="#E5E5E5"/>
<stop offset="1" stop-color="#757575"/>
</linearGradient>
<linearGradient id="paint1_linear_139_6690" x1="147.122" y1="48.5503" x2="147.122" y2="92.0061" gradientUnits="userSpaceOnUse">
<stop stop-color="#777777"/>
<stop offset="1" stop-color="#CBCBCB"/>
</linearGradient>
<linearGradient id="paint2_linear_139_6690" x1="149.612" y1="73.3293" x2="156.215" y2="97.3346" gradientUnits="userSpaceOnUse">
<stop stop-color="white"/>
<stop offset="1" stop-color="#B0B0B0"/>
</linearGradient>
<linearGradient id="paint3_linear_139_6690" x1="86.2245" y1="36.835" x2="102.287" y2="61.469" gradientUnits="userSpaceOnUse">
<stop stop-color="white"/>
<stop offset="1" stop-color="#747474"/>
</linearGradient>
<linearGradient id="paint4_linear_139_6690" x1="98.5108" y1="66.2779" x2="110.66" y2="96.6579" gradientUnits="userSpaceOnUse">
<stop stop-color="white"/>
<stop offset="1" stop-color="#B0B0B0"/>
</linearGradient>
<linearGradient id="paint5_linear_139_6690" x1="123.604" y1="3.94976" x2="123.604" y2="34.0054" gradientUnits="userSpaceOnUse">
<stop stop-color="white"/>
<stop offset="1" stop-color="#9D9D9D"/>
</linearGradient>
<linearGradient id="paint6_linear_139_6690" x1="127.724" y1="2.83325e-07" x2="106.508" y2="94.7724" gradientUnits="userSpaceOnUse">
<stop stop-color="#A31F34"/>
<stop offset="0.109375" stop-color="#D53A8B"/>
<stop offset="0.463542" stop-color="#A03AB7"/>
<stop offset="1" stop-color="#2043D2"/>
</linearGradient>
<linearGradient id="paint7_linear_139_6690" x1="3.23389" y1="151.66" x2="219.789" y2="151.66" gradientUnits="userSpaceOnUse">
<stop stop-color="#A31F34"/>
<stop offset="0.104167" stop-color="#B12870"/>
<stop offset="0.546875" stop-color="#A03AB7"/>
<stop offset="0.927083" stop-color="#4F56D3"/>
<stop offset="1" stop-color="#3B5DE8"/>
</linearGradient>
<linearGradient id="paint8_linear_139_6690" x1="3.23389" y1="151.66" x2="219.789" y2="151.66" gradientUnits="userSpaceOnUse">
<stop stop-color="#A31F34"/>
<stop offset="0.104167" stop-color="#B12870"/>
<stop offset="0.546875" stop-color="#A03AB7"/>
<stop offset="0.927083" stop-color="#4F56D3"/>
<stop offset="1" stop-color="#3B5DE8"/>
</linearGradient>
<linearGradient id="paint9_linear_139_6690" x1="3.23389" y1="151.66" x2="219.789" y2="151.66" gradientUnits="userSpaceOnUse">
<stop stop-color="#A31F34"/>
<stop offset="0.104167" stop-color="#B12870"/>
<stop offset="0.546875" stop-color="#A03AB7"/>
<stop offset="0.927083" stop-color="#4F56D3"/>
<stop offset="1" stop-color="#3B5DE8"/>
</linearGradient>
<linearGradient id="paint10_linear_139_6690" x1="3.23389" y1="151.66" x2="219.789" y2="151.66" gradientUnits="userSpaceOnUse">
<stop stop-color="#A31F34"/>
<stop offset="0.104167" stop-color="#B12870"/>
<stop offset="0.546875" stop-color="#A03AB7"/>
<stop offset="0.927083" stop-color="#4F56D3"/>
<stop offset="1" stop-color="#3B5DE8"/>
</linearGradient>
<linearGradient id="paint11_linear_139_6690" x1="3.23389" y1="151.66" x2="219.789" y2="151.66" gradientUnits="userSpaceOnUse">
<stop stop-color="#A31F34"/>
<stop offset="0.104167" stop-color="#B12870"/>
<stop offset="0.546875" stop-color="#A03AB7"/>
<stop offset="0.927083" stop-color="#4F56D3"/>
<stop offset="1" stop-color="#3B5DE8"/>
</linearGradient>
<linearGradient id="paint12_linear_139_6690" x1="3.23389" y1="151.66" x2="219.789" y2="151.66" gradientUnits="userSpaceOnUse">
<stop stop-color="#A31F34"/>
<stop offset="0.104167" stop-color="#B12870"/>
<stop offset="0.546875" stop-color="#A03AB7"/>
<stop offset="0.927083" stop-color="#4F56D3"/>
<stop offset="1" stop-color="#3B5DE8"/>
</linearGradient>
<linearGradient id="paint13_linear_139_6690" x1="3.23389" y1="151.66" x2="219.789" y2="151.66" gradientUnits="userSpaceOnUse">
<stop stop-color="#A31F34"/>
<stop offset="0.104167" stop-color="#B12870"/>
<stop offset="0.546875" stop-color="#A03AB7"/>
<stop offset="0.927083" stop-color="#4F56D3"/>
<stop offset="1" stop-color="#3B5DE8"/>
</linearGradient>
<linearGradient id="paint14_linear_139_6690" x1="3.23389" y1="151.66" x2="219.789" y2="151.66" gradientUnits="userSpaceOnUse">
<stop stop-color="#A31F34"/>
<stop offset="0.104167" stop-color="#B12870"/>
<stop offset="0.546875" stop-color="#A03AB7"/>
<stop offset="0.927083" stop-color="#4F56D3"/>
<stop offset="1" stop-color="#3B5DE8"/>
</linearGradient>
<linearGradient id="paint15_linear_139_6690" x1="3.23389" y1="151.66" x2="219.789" y2="151.66" gradientUnits="userSpaceOnUse">
<stop stop-color="#A31F34"/>
<stop offset="0.104167" stop-color="#B12870"/>
<stop offset="0.546875" stop-color="#A03AB7"/>
<stop offset="0.927083" stop-color="#4F56D3"/>
<stop offset="1" stop-color="#3B5DE8"/>
</linearGradient>
</defs>
</svg>
